<svg width="267" height="244" viewBox="0 0 267 244" fill="none" xmlns="http://www.w3.org/2000/svg">
<circle cx="9.5" cy="9.5" r="9.5" fill="#B9B8B8"/>
<circle cx="71.5" cy="9.5" r="9.5" fill="#B9B8B8"/>
<circle cx="133.5" cy="9.5" r="9.5" fill="#B9B8B8"/>
<circle cx="195.5" cy="9.5" r="9.5" fill="#B9B8B8"/>
<circle cx="257.5" cy="9.5" r="9.5" fill="#B9B8B8"/>
<circle cx="9.5" cy="54.5" r="9.5" fill="#B9B8B8"/>
<circle cx="71.5" cy="54.5" r="9.5" fill="#B9B8B8"/>
<circle cx="133.5" cy="54.5" r="9.5" fill="#B9B8B8"/>
<circle cx="195.5" cy="54.5" r="9.5" fill="#B9B8B8"/>
<circle cx="257.5" cy="54.5" r="9.5" fill="#B9B8B8"/>
<circle cx="9.5" cy="99.5" r="9.5" fill="#B9B8B8"/>
<circle cx="71.5" cy="99.5" r="9.5" fill="#B9B8B8"/>
<circle cx="133.5" cy="99.5" r="9.5" fill="#B9B8B8"/>
<circle cx="195.5" cy="99.5" r="9.5" fill="#B9B8B8"/>
<circle cx="257.5" cy="99.5" r="9.5" fill="#B9B8B8"/>
<circle cx="9.5" cy="144.5" r="9.5" fill="#B9B8B8"/>
<circle cx="71.5" cy="144.5" r="9.5" fill="#B9B8B8"/>
<circle cx="133.5" cy="144.5" r="9.5" fill="#B9B8B8"/>
<circle cx="195.5" cy="144.5" r="9.5" fill="#B9B8B8"/>
<circle cx="257.5" cy="144.5" r="9.5" fill="#B9B8B8"/>
<circle cx="9.5" cy="189.5" r="9.5" fill="#B9B8B8"/>
<circle cx="71.5" cy="189.5" r="9.5" fill="#B9B8B8"/>
<circle cx="133.5" cy="189.5" r="9.5" fill="#B9B8B8"/>
<circle cx="195.5" cy="189.5" r="9.5" fill="#B9B8B8"/>
<circle cx="257.5" cy="189.5" r="9.5" fill="#B9B8B8"/>
<circle cx="9.5" cy="234.5" r="9.5" fill="#B9B8B8"/>
<circle cx="71.5" cy="234.5" r="9.5" fill="#B9B8B8"/>
<circle cx="133.5" cy="234.5" r="9.5" fill="#B9B8B8"/>
<circle cx="195.5" cy="234.5" r="9.5" fill="#B9B8B8"/>
<circle cx="257.5" cy="234.5" r="9.5" fill="#B9B8B8"/>
</svg>
